<svg width="1024" height="1024" viewBox="0 0 1024 1024" fill="none" xmlns="http://www.w3.org/2000/svg">
<rect width="1024" height="1024" fill="url(#paint0_linear_30_2)"/>
<path d="M230.852 404L317.352 354C328.685 347.333 338.685 346.5 347.352 351.5C356.018 356.5 360.352 365.667 360.352 379V454C360.352 462.667 358.352 472 354.352 482C350.352 492 345.018 501.333 338.352 510C332.018 518.333 325.018 524.667 317.352 529L273.852 554C262.518 560.667 252.518 561.5 243.852 556.5C235.185 551.5 230.852 542.333 230.852 529V644L360.352 569V619L230.852 694C219.185 700.667 209.018 701.5 200.352 696.5C191.685 691.5 187.352 682.333 187.352 669V479C187.352 470 189.352 460.667 193.352 451C197.352 441 202.685 431.833 209.352 423.5C216.018 414.833 223.185 408.333 230.852 404ZM317.352 404L230.852 454V529L317.352 479V404ZM360.352 569L230.852 644L187.352 619L317.352 544L360.352 569ZM317.352 404V479L273.852 454V379L317.352 404ZM230.852 529C230.852 542.333 235.185 551.5 243.852 556.5L200.352 531.5C191.685 526.5 187.352 517.333 187.352 504L230.852 529ZM317.352 479L230.852 529L187.352 504L273.852 454L317.352 479ZM347.352 351.5C338.685 346.5 328.685 347.333 317.352 354L230.852 404C223.185 408.333 216.018 414.833 209.352 423.5C202.685 431.833 197.352 441 193.352 451C189.352 460.667 187.352 470 187.352 479V669C187.352 682.333 191.685 691.5 200.352 696.5L156.852 671.5C148.185 666.5 143.852 657.333 143.852 644V454C143.852 445 145.852 435.667 149.852 426C153.852 416 159.185 406.833 165.852 398.5C172.518 389.833 179.685 383.333 187.352 379L273.852 329C285.518 322.333 295.685 321.5 304.352 326.5L347.352 351.5ZM490.617 574C478.951 580.667 468.784 581.5 460.117 576.5C451.451 571.5 447.117 562.333 447.117 549V499C447.117 490 449.117 480.667 453.117 471C457.117 461 462.451 451.833 469.117 443.5C475.784 434.833 482.951 428.333 490.617 424L620.117 349V399L490.617 474V524L577.117 474C588.451 467.333 598.451 466.5 607.117 471.5C615.784 476.5 620.117 485.667 620.117 499V549C620.117 557.667 618.117 567 614.117 577C610.117 587 604.784 596.333 598.117 605C591.784 613.333 584.784 619.667 577.117 624L447.117 699V649L577.117 574V524L490.617 574ZM577.117 524V574L533.617 549V499L577.117 524ZM577.117 574L447.117 649L403.617 624L533.617 549L577.117 574ZM447.117 649V699L403.617 674V624L447.117 649ZM607.117 471.5C598.451 466.5 588.451 467.333 577.117 474L490.617 524L447.117 499L533.617 449C545.284 442.333 555.451 441.5 564.117 446.5L607.117 471.5ZM620.117 349L490.617 424C482.951 428.333 475.784 434.833 469.117 443.5C462.451 451.833 457.117 461 453.117 471C449.117 480.667 447.117 490 447.117 499V549C447.117 562.333 451.451 571.5 460.117 576.5L416.617 551.5C407.951 546.5 403.617 537.333 403.617 524V474C403.617 465 405.617 455.667 409.617 446C413.617 436 418.951 426.833 425.617 418.5C432.284 409.833 439.451 403.333 447.117 399L577.117 324L620.117 349ZM750.383 424L879.883 349V739L836.883 764V594C836.883 602.667 834.883 612 830.883 622C826.883 632 821.549 641.333 814.883 650C808.216 658.333 801.049 664.667 793.383 669L750.383 694C738.716 700.667 728.549 701.5 719.883 696.5C711.216 691.5 706.883 682.333 706.883 669V499C706.883 490 708.883 480.667 712.883 471C716.883 461 722.216 451.833 728.883 443.5C735.549 434.833 742.716 428.333 750.383 424ZM750.383 474V644L836.883 594V424L750.383 474ZM836.883 594V764L793.383 739V569L836.883 594ZM836.883 424V594L793.383 569V399L836.883 424ZM836.883 594L750.383 644L706.883 619L793.383 569L836.883 594ZM879.883 349L750.383 424C742.716 428.333 735.549 434.833 728.883 443.5C722.216 451.833 716.883 461 712.883 471C708.883 480.667 706.883 490 706.883 499V669C706.883 682.333 711.216 691.5 719.883 696.5L676.383 671.5C667.716 666.5 663.383 657.333 663.383 644V474C663.383 465 665.383 455.667 669.383 446C673.383 436 678.716 426.833 685.383 418.5C692.049 409.833 699.216 403.333 706.883 399L836.883 324L879.883 349Z" fill="white"/>
<defs>
<linearGradient id="paint0_linear_30_2" x1="0" y1="0" x2="965" y2="1024" gradientUnits="userSpaceOnUse">
<stop offset="0.0107579" stop-color="#EA7676"/>
<stop offset="1" stop-color="#C79E35"/>
</linearGradient>
</defs>
</svg>
