<svg width="737" height="445" viewBox="0 0 737 445" fill="none" xmlns="http://www.w3.org/2000/svg">
<path d="M87.8516 85L174.352 35C185.685 28.3333 195.685 27.5 204.352 32.5C213.018 37.5 217.352 46.6666 217.352 60V135C217.352 143.667 215.352 153 211.352 163C207.352 173 202.018 182.333 195.352 191C189.018 199.333 182.018 205.667 174.352 210L130.852 235C119.518 241.667 109.518 242.5 100.852 237.5C92.1849 232.5 87.8516 223.333 87.8516 210V325L217.352 250V300L87.8516 375C76.1849 381.667 66.0182 382.5 57.3516 377.5C48.6849 372.5 44.3516 363.333 44.3516 350V160C44.3516 151 46.3516 141.667 50.3516 132C54.3516 122 59.6849 112.833 66.3516 104.5C73.0182 95.8333 80.1849 89.3333 87.8516 85ZM174.352 85L87.8516 135V210L174.352 160V85ZM217.352 250L87.8516 325L44.3516 300L174.352 225L217.352 250ZM174.352 85V160L130.852 135V60L174.352 85ZM87.8516 210C87.8516 223.333 92.1849 232.5 100.852 237.5L57.3516 212.5C48.6849 207.5 44.3516 198.333 44.3516 185L87.8516 210ZM174.352 160L87.8516 210L44.3516 185L130.852 135L174.352 160ZM204.352 32.5C195.685 27.5 185.685 28.3333 174.352 35L87.8516 85C80.1849 89.3333 73.0182 95.8333 66.3516 104.5C59.6849 112.833 54.3516 122 50.3516 132C46.3516 141.667 44.3516 151 44.3516 160V350C44.3516 363.333 48.6849 372.5 57.3516 377.5L13.8516 352.5C5.1849 347.5 0.851563 338.333 0.851563 325V135C0.851563 126 2.85156 116.667 6.85156 107C10.8516 97 16.1849 87.8333 22.8516 79.5C29.5182 70.8333 36.6849 64.3333 44.3516 60L130.852 9.99997C142.518 3.33331 152.685 2.49998 161.352 7.49997L204.352 32.5ZM347.617 255C335.951 261.667 325.784 262.5 317.117 257.5C308.451 252.5 304.117 243.333 304.117 230V180C304.117 171 306.117 161.667 310.117 152C314.117 142 319.451 132.833 326.117 124.5C332.784 115.833 339.951 109.333 347.617 105L477.117 30V80L347.617 155V205L434.117 155C445.451 148.333 455.451 147.5 464.117 152.5C472.784 157.5 477.117 166.667 477.117 180V230C477.117 238.667 475.117 248 471.117 258C467.117 268 461.784 277.333 455.117 286C448.784 294.333 441.784 300.667 434.117 305L304.117 380V330L434.117 255V205L347.617 255ZM434.117 205V255L390.617 230V180L434.117 205ZM434.117 255L304.117 330L260.617 305L390.617 230L434.117 255ZM304.117 330V380L260.617 355V305L304.117 330ZM464.117 152.5C455.451 147.5 445.451 148.333 434.117 155L347.617 205L304.117 180L390.617 130C402.284 123.333 412.451 122.5 421.117 127.5L464.117 152.5ZM477.117 30L347.617 105C339.951 109.333 332.784 115.833 326.117 124.5C319.451 132.833 314.117 142 310.117 152C306.117 161.667 304.117 171 304.117 180V230C304.117 243.333 308.451 252.5 317.117 257.5L273.617 232.5C264.951 227.5 260.617 218.333 260.617 205V155C260.617 146 262.617 136.667 266.617 127C270.617 117 275.951 107.833 282.617 99.5C289.284 90.8333 296.451 84.3333 304.117 80L434.117 4.99998L477.117 30ZM607.383 105L736.883 30V420L693.883 445V275C693.883 283.667 691.883 293 687.883 303C683.883 313 678.549 322.333 671.883 331C665.216 339.333 658.049 345.667 650.383 350L607.383 375C595.716 381.667 585.549 382.5 576.883 377.5C568.216 372.5 563.883 363.333 563.883 350V180C563.883 171 565.883 161.667 569.883 152C573.883 142 579.216 132.833 585.883 124.5C592.549 115.833 599.716 109.333 607.383 105ZM607.383 155V325L693.883 275V105L607.383 155ZM693.883 275V445L650.383 420V250L693.883 275ZM693.883 105V275L650.383 250V80L693.883 105ZM693.883 275L607.383 325L563.883 300L650.383 250L693.883 275ZM736.883 30L607.383 105C599.716 109.333 592.549 115.833 585.883 124.5C579.216 132.833 573.883 142 569.883 152C565.883 161.667 563.883 171 563.883 180V350C563.883 363.333 568.216 372.5 576.883 377.5L533.383 352.5C524.716 347.5 520.383 338.333 520.383 325V155C520.383 146 522.383 136.667 526.383 127C530.383 117 535.716 107.833 542.383 99.5C549.049 90.8333 556.216 84.3333 563.883 80L693.883 4.99998L736.883 30Z" fill="white"/>
</svg>
